<svg width="64" height="64" xmlns="http://www.w3.org/2000/svg">

 <g>
  <title>background</title>
  <rect fill="none" id="canvas_background" height="402" width="582" y="-1" x="-1"/>
 </g>
 <g>
  <title>Layer 1</title>
  <path id="svg_2" fill="#febd59" d="m56.034,35.451l-48.593,0c-2.212,0 -2.578,1.412 -2.609,2.235c1.095,14.68 12.828,26.252 27.168,26.252c14.117,0 25.729,-11.203 27.134,-25.556c0.006,-0.023 0.003,-0.044 0.006,-0.067c0.019,-0.181 0.013,-0.365 0.028,-0.548c-0.085,-2.061 -2.361,-2.296 -3.134,-2.316zm-24.065,25.014c-11,0 -19.965,-9.008 -20.566,-20.337c0.088,-0.554 0.475,-1.203 1.86,-1.203l37.794,0c0.374,0.008 1.472,0.17 1.459,1.607c-0.79,11.14 -9.676,19.933 -20.547,19.933z"/>
  <path id="svg_3" fill="#241F20" d="m27.788,11.428"/>
  <path id="svg_4" fill="#febd59" d="m47.008,16.879c-0.295,-0.757 -0.73,-1.442 -1.305,-2.002c-0.013,-0.017 -0.016,-0.027 -0.031,-0.044c-0.013,-0.016 -0.028,-0.025 -0.044,-0.041c-0.013,-0.011 -0.025,-0.022 -0.038,-0.035c-0.223,-0.237 -0.464,-0.423 -0.705,-0.596c-0.075,-0.055 -0.15,-0.108 -0.232,-0.157c-0.179,-0.111 -0.357,-0.202 -0.539,-0.285c-1.75,-0.762 -4.109,-0.579 -4.109,-0.579l-11.485,0l-0.535,0l-2.5,0c0,0 -1.223,0.003 -2.007,-0.312c-0.125,-0.062 -0.248,-0.121 -0.364,-0.196c-0.016,-0.014 -0.041,-0.023 -0.06,-0.039c-0.878,-0.605 -1.458,-1.619 -1.458,-2.768c0,-1.857 1.506,-3.362 3.362,-3.362l6.925,0l0.806,0l0.625,0c2.889,0 3.412,-2.104 3.503,-3.069l0,-2.293c0,-0.883 -0.646,-1.024 -0.743,-1.04c-0.941,0.028 -2.443,0.263 -2.443,1.517c0,0.296 0,0.528 0,0.735c-0.034,0.378 -0.26,1.081 -1.53,1.081l-7.619,0c-0.016,0.001 -0.028,0.001 -0.041,0.001c-0.003,0 -0.009,-0.001 -0.012,-0.001c-0.013,0 -0.028,0.004 -0.041,0.004c-0.474,0.025 -0.928,0.068 -1.311,0.132c-0.006,0.001 -0.012,0.001 -0.019,0.003c-0.267,0.047 -0.502,0.104 -0.674,0.175c-0.057,0.025 -0.094,0.05 -0.132,0.075c-2.663,0.91 -4.592,3.408 -4.592,6.38c0,3.282 2.336,6.016 5.436,6.637c0.42,0.106 0.859,0.177 1.308,0.204l0,0.028l0.289,0.001c0.038,0 0.076,0.011 0.113,0.011s0.072,-0.009 0.113,-0.011l0.822,0.003l0,0.006l14.497,-0.002c1.944,0 2.785,0.522 3.134,0.872c0.21,0.439 0.338,0.925 0.338,1.446c0,1.15 -0.577,2.163 -1.458,2.768c-0.016,0.016 -0.041,0.025 -0.06,0.039c-0.113,0.076 -0.238,0.135 -0.36,0.196c-0.788,0.315 -2.011,0.312 -2.011,0.312l-6.398,0l-9.378,-0.001c0,0 -1.129,-0.016 -2.218,0.318c-0.028,0.009 -0.056,0.019 -0.088,0.03c-0.113,0.036 -0.226,0.077 -0.338,0.122c-0.577,0.24 -1.167,0.599 -1.681,1.148c-0.013,0.013 -0.025,0.023 -0.038,0.035c-0.016,0.016 -0.032,0.025 -0.044,0.041c-0.016,0.018 -0.019,0.027 -0.032,0.044c-1.044,1.02 -1.697,2.431 -1.697,4.007c0,0.369 0.047,0.722 0.125,1.065c0.085,0.317 0.398,1.044 1.452,1.049l0.486,0c1.179,-0.027 1.483,-2.194 1.483,-2.194l0.006,0.001c0.072,-0.254 0.172,-0.494 0.317,-0.709c0.006,-0.009 0.009,-0.017 0.019,-0.028c0.016,-0.022 0.035,-0.039 0.05,-0.061c0.289,-0.34 1.101,-0.964 3.225,-0.964l14.494,0.001l0,-0.006l0.824,-0.003c0.038,0.001 0.075,0.011 0.113,0.011s0.072,-0.011 0.109,-0.011l0.292,-0.002l0,-0.026c0.448,-0.027 0.885,-0.097 1.305,-0.204c3.103,-0.621 5.438,-3.354 5.438,-6.637c0,-1.011 -0.238,-1.962 -0.639,-2.82z"/>
 </g>
</svg>